<mxfile host="app.diagrams.net" modified="2023-06-20T12:15:34.819Z" agent="Mozilla/5.0 (Windows NT 10.0; Win64; x64; rv:109.0) Gecko/20100101 Firefox/114.0" etag="d4BS_qThi5A8W4oXa_Hz" version="21.4.0" type="github" pages="3">
  <diagram id="F9Y2U9Dl20ICkuOX6Qwu" name="Tree1">
    <mxGraphModel dx="989" dy="584" grid="1" gridSize="10" guides="1" tooltips="1" connect="1" arrows="1" fold="1" page="1" pageScale="1" pageWidth="827" pageHeight="1169" math="0" shadow="0">
      <root>
        <mxCell id="0" />
        <mxCell id="1" parent="0" />
        <mxCell id="kJtBMgdoE27MkvPEzm7F-3" style="edgeStyle=none;rounded=0;orthogonalLoop=1;jettySize=auto;html=1;exitX=0;exitY=1;exitDx=0;exitDy=0;" edge="1" parent="1" source="LNvxu4UY2p66SDTGk6Sy-1" target="kJtBMgdoE27MkvPEzm7F-1">
          <mxGeometry relative="1" as="geometry" />
        </mxCell>
        <mxCell id="kJtBMgdoE27MkvPEzm7F-4" style="edgeStyle=none;rounded=0;orthogonalLoop=1;jettySize=auto;html=1;exitX=1;exitY=1;exitDx=0;exitDy=0;" edge="1" parent="1" source="LNvxu4UY2p66SDTGk6Sy-1" target="kJtBMgdoE27MkvPEzm7F-2">
          <mxGeometry relative="1" as="geometry" />
        </mxCell>
        <mxCell id="LNvxu4UY2p66SDTGk6Sy-1" value="2" style="ellipse;whiteSpace=wrap;html=1;aspect=fixed;fontSize=20;" vertex="1" parent="1">
          <mxGeometry x="140" y="200" width="40" height="40" as="geometry" />
        </mxCell>
        <mxCell id="LNvxu4UY2p66SDTGk6Sy-9" style="edgeStyle=none;rounded=0;orthogonalLoop=1;jettySize=auto;html=1;" edge="1" parent="1" source="LNvxu4UY2p66SDTGk6Sy-8" target="LNvxu4UY2p66SDTGk6Sy-1">
          <mxGeometry relative="1" as="geometry" />
        </mxCell>
        <mxCell id="LNvxu4UY2p66SDTGk6Sy-8" value="Root" style="text;html=1;strokeColor=none;fillColor=none;align=center;verticalAlign=middle;whiteSpace=wrap;rounded=0;" vertex="1" parent="1">
          <mxGeometry x="130" y="130" width="60" height="30" as="geometry" />
        </mxCell>
        <mxCell id="kJtBMgdoE27MkvPEzm7F-1" value="1" style="ellipse;whiteSpace=wrap;html=1;aspect=fixed;fontSize=20;" vertex="1" parent="1">
          <mxGeometry x="80" y="280" width="40" height="40" as="geometry" />
        </mxCell>
        <mxCell id="kJtBMgdoE27MkvPEzm7F-2" value="3" style="ellipse;whiteSpace=wrap;html=1;aspect=fixed;fontSize=20;" vertex="1" parent="1">
          <mxGeometry x="200" y="280" width="40" height="40" as="geometry" />
        </mxCell>
        <mxCell id="kJtBMgdoE27MkvPEzm7F-21" style="edgeStyle=none;rounded=0;orthogonalLoop=1;jettySize=auto;html=1;exitX=0;exitY=1;exitDx=0;exitDy=0;" edge="1" source="kJtBMgdoE27MkvPEzm7F-23" target="kJtBMgdoE27MkvPEzm7F-26" parent="1">
          <mxGeometry relative="1" as="geometry" />
        </mxCell>
        <mxCell id="kJtBMgdoE27MkvPEzm7F-22" style="edgeStyle=none;rounded=0;orthogonalLoop=1;jettySize=auto;html=1;exitX=1;exitY=1;exitDx=0;exitDy=0;" edge="1" source="kJtBMgdoE27MkvPEzm7F-23" target="kJtBMgdoE27MkvPEzm7F-27" parent="1">
          <mxGeometry relative="1" as="geometry" />
        </mxCell>
        <mxCell id="kJtBMgdoE27MkvPEzm7F-23" value="4" style="ellipse;whiteSpace=wrap;html=1;aspect=fixed;fontSize=20;" vertex="1" parent="1">
          <mxGeometry x="480" y="200" width="40" height="40" as="geometry" />
        </mxCell>
        <mxCell id="kJtBMgdoE27MkvPEzm7F-24" style="edgeStyle=none;rounded=0;orthogonalLoop=1;jettySize=auto;html=1;" edge="1" source="kJtBMgdoE27MkvPEzm7F-25" target="kJtBMgdoE27MkvPEzm7F-23" parent="1">
          <mxGeometry relative="1" as="geometry" />
        </mxCell>
        <mxCell id="kJtBMgdoE27MkvPEzm7F-25" value="Root" style="text;html=1;strokeColor=none;fillColor=none;align=center;verticalAlign=middle;whiteSpace=wrap;rounded=0;" vertex="1" parent="1">
          <mxGeometry x="470" y="130" width="60" height="30" as="geometry" />
        </mxCell>
        <mxCell id="kJtBMgdoE27MkvPEzm7F-30" style="edgeStyle=none;rounded=0;orthogonalLoop=1;jettySize=auto;html=1;exitX=0;exitY=1;exitDx=0;exitDy=0;" edge="1" parent="1" source="kJtBMgdoE27MkvPEzm7F-26" target="kJtBMgdoE27MkvPEzm7F-28">
          <mxGeometry relative="1" as="geometry" />
        </mxCell>
        <mxCell id="kJtBMgdoE27MkvPEzm7F-31" style="edgeStyle=none;rounded=0;orthogonalLoop=1;jettySize=auto;html=1;exitX=1;exitY=1;exitDx=0;exitDy=0;" edge="1" parent="1" source="kJtBMgdoE27MkvPEzm7F-26" target="kJtBMgdoE27MkvPEzm7F-29">
          <mxGeometry relative="1" as="geometry" />
        </mxCell>
        <mxCell id="kJtBMgdoE27MkvPEzm7F-26" value="2" style="ellipse;whiteSpace=wrap;html=1;aspect=fixed;fontSize=20;" vertex="1" parent="1">
          <mxGeometry x="400" y="280" width="40" height="40" as="geometry" />
        </mxCell>
        <mxCell id="kJtBMgdoE27MkvPEzm7F-34" style="edgeStyle=none;rounded=0;orthogonalLoop=1;jettySize=auto;html=1;exitX=0;exitY=1;exitDx=0;exitDy=0;" edge="1" parent="1" source="kJtBMgdoE27MkvPEzm7F-27" target="kJtBMgdoE27MkvPEzm7F-32">
          <mxGeometry relative="1" as="geometry" />
        </mxCell>
        <mxCell id="kJtBMgdoE27MkvPEzm7F-35" style="edgeStyle=none;rounded=0;orthogonalLoop=1;jettySize=auto;html=1;exitX=1;exitY=1;exitDx=0;exitDy=0;" edge="1" parent="1" source="kJtBMgdoE27MkvPEzm7F-27" target="kJtBMgdoE27MkvPEzm7F-33">
          <mxGeometry relative="1" as="geometry" />
        </mxCell>
        <mxCell id="kJtBMgdoE27MkvPEzm7F-27" value="6" style="ellipse;whiteSpace=wrap;html=1;aspect=fixed;fontSize=20;" vertex="1" parent="1">
          <mxGeometry x="560" y="280" width="40" height="40" as="geometry" />
        </mxCell>
        <mxCell id="kJtBMgdoE27MkvPEzm7F-28" value="1" style="ellipse;whiteSpace=wrap;html=1;aspect=fixed;fontSize=20;" vertex="1" parent="1">
          <mxGeometry x="360" y="360" width="40" height="40" as="geometry" />
        </mxCell>
        <mxCell id="kJtBMgdoE27MkvPEzm7F-29" value="3" style="ellipse;whiteSpace=wrap;html=1;aspect=fixed;fontSize=20;" vertex="1" parent="1">
          <mxGeometry x="440" y="360" width="40" height="40" as="geometry" />
        </mxCell>
        <mxCell id="kJtBMgdoE27MkvPEzm7F-32" value="5" style="ellipse;whiteSpace=wrap;html=1;aspect=fixed;fontSize=20;" vertex="1" parent="1">
          <mxGeometry x="520" y="360" width="40" height="40" as="geometry" />
        </mxCell>
        <mxCell id="kJtBMgdoE27MkvPEzm7F-33" value="7" style="ellipse;whiteSpace=wrap;html=1;aspect=fixed;fontSize=20;" vertex="1" parent="1">
          <mxGeometry x="600" y="360" width="40" height="40" as="geometry" />
        </mxCell>
      </root>
    </mxGraphModel>
  </diagram>
  <diagram name="Tree2" id="b2XWhcLN_b-lHxWRCfYX">
    <mxGraphModel dx="819" dy="484" grid="1" gridSize="10" guides="1" tooltips="1" connect="1" arrows="1" fold="1" page="1" pageScale="1" pageWidth="827" pageHeight="1169" math="0" shadow="0">
      <root>
        <mxCell id="0" />
        <mxCell id="1" parent="0" />
        <mxCell id="NPnL9OzpwwGP1QtvTA34-9" style="rounded=0;orthogonalLoop=1;jettySize=auto;html=1;exitX=0;exitY=1;exitDx=0;exitDy=0;endArrow=none;endFill=0;" edge="1" parent="1" source="NPnL9OzpwwGP1QtvTA34-1" target="NPnL9OzpwwGP1QtvTA34-7">
          <mxGeometry relative="1" as="geometry" />
        </mxCell>
        <mxCell id="NPnL9OzpwwGP1QtvTA34-10" style="rounded=0;orthogonalLoop=1;jettySize=auto;html=1;exitX=1;exitY=1;exitDx=0;exitDy=0;endArrow=none;endFill=0;" edge="1" parent="1" source="NPnL9OzpwwGP1QtvTA34-1" target="NPnL9OzpwwGP1QtvTA34-8">
          <mxGeometry relative="1" as="geometry" />
        </mxCell>
        <mxCell id="NPnL9OzpwwGP1QtvTA34-1" value="3" style="ellipse;whiteSpace=wrap;html=1;aspect=fixed;fontSize=20;" vertex="1" parent="1">
          <mxGeometry x="160" y="280" width="40" height="40" as="geometry" />
        </mxCell>
        <mxCell id="NPnL9OzpwwGP1QtvTA34-5" style="rounded=0;orthogonalLoop=1;jettySize=auto;html=1;exitX=0;exitY=1;exitDx=0;exitDy=0;endArrow=none;endFill=0;" edge="1" parent="1" source="NPnL9OzpwwGP1QtvTA34-2" target="NPnL9OzpwwGP1QtvTA34-1">
          <mxGeometry relative="1" as="geometry" />
        </mxCell>
        <mxCell id="NPnL9OzpwwGP1QtvTA34-6" style="rounded=0;orthogonalLoop=1;jettySize=auto;html=1;exitX=1;exitY=1;exitDx=0;exitDy=0;endArrow=none;endFill=0;" edge="1" parent="1" source="NPnL9OzpwwGP1QtvTA34-2" target="NPnL9OzpwwGP1QtvTA34-3">
          <mxGeometry relative="1" as="geometry" />
        </mxCell>
        <mxCell id="NPnL9OzpwwGP1QtvTA34-2" value="6" style="ellipse;whiteSpace=wrap;html=1;aspect=fixed;fontSize=20;" vertex="1" parent="1">
          <mxGeometry x="240" y="200" width="40" height="40" as="geometry" />
        </mxCell>
        <mxCell id="NPnL9OzpwwGP1QtvTA34-16" style="rounded=0;orthogonalLoop=1;jettySize=auto;html=1;exitX=0;exitY=1;exitDx=0;exitDy=0;endArrow=none;endFill=0;" edge="1" parent="1" source="NPnL9OzpwwGP1QtvTA34-3" target="NPnL9OzpwwGP1QtvTA34-13">
          <mxGeometry relative="1" as="geometry" />
        </mxCell>
        <mxCell id="NPnL9OzpwwGP1QtvTA34-18" style="rounded=0;orthogonalLoop=1;jettySize=auto;html=1;exitX=1;exitY=1;exitDx=0;exitDy=0;endArrow=none;endFill=0;" edge="1" parent="1" source="NPnL9OzpwwGP1QtvTA34-3" target="NPnL9OzpwwGP1QtvTA34-17">
          <mxGeometry relative="1" as="geometry" />
        </mxCell>
        <mxCell id="NPnL9OzpwwGP1QtvTA34-3" value="10" style="ellipse;whiteSpace=wrap;html=1;aspect=fixed;fontSize=20;" vertex="1" parent="1">
          <mxGeometry x="320" y="280" width="40" height="40" as="geometry" />
        </mxCell>
        <mxCell id="NPnL9OzpwwGP1QtvTA34-7" value="1" style="ellipse;whiteSpace=wrap;html=1;aspect=fixed;fontSize=20;" vertex="1" parent="1">
          <mxGeometry x="120" y="360" width="40" height="40" as="geometry" />
        </mxCell>
        <mxCell id="NPnL9OzpwwGP1QtvTA34-8" value="4" style="ellipse;whiteSpace=wrap;html=1;aspect=fixed;fontSize=20;" vertex="1" parent="1">
          <mxGeometry x="200" y="360" width="40" height="40" as="geometry" />
        </mxCell>
        <mxCell id="NPnL9OzpwwGP1QtvTA34-11" style="rounded=0;orthogonalLoop=1;jettySize=auto;html=1;exitX=0;exitY=1;exitDx=0;exitDy=0;endArrow=none;endFill=0;" edge="1" source="NPnL9OzpwwGP1QtvTA34-13" target="NPnL9OzpwwGP1QtvTA34-14" parent="1">
          <mxGeometry relative="1" as="geometry" />
        </mxCell>
        <mxCell id="NPnL9OzpwwGP1QtvTA34-12" style="rounded=0;orthogonalLoop=1;jettySize=auto;html=1;exitX=1;exitY=1;exitDx=0;exitDy=0;endArrow=none;endFill=0;" edge="1" source="NPnL9OzpwwGP1QtvTA34-13" target="NPnL9OzpwwGP1QtvTA34-15" parent="1">
          <mxGeometry relative="1" as="geometry" />
        </mxCell>
        <mxCell id="NPnL9OzpwwGP1QtvTA34-13" value="8" style="ellipse;whiteSpace=wrap;html=1;aspect=fixed;fontSize=20;" vertex="1" parent="1">
          <mxGeometry x="280" y="360" width="40" height="40" as="geometry" />
        </mxCell>
        <mxCell id="NPnL9OzpwwGP1QtvTA34-14" value="7" style="ellipse;whiteSpace=wrap;html=1;aspect=fixed;fontSize=20;" vertex="1" parent="1">
          <mxGeometry x="240" y="440" width="40" height="40" as="geometry" />
        </mxCell>
        <mxCell id="NPnL9OzpwwGP1QtvTA34-15" value="9" style="ellipse;whiteSpace=wrap;html=1;aspect=fixed;fontSize=20;" vertex="1" parent="1">
          <mxGeometry x="320" y="440" width="40" height="40" as="geometry" />
        </mxCell>
        <mxCell id="NPnL9OzpwwGP1QtvTA34-17" value="12" style="ellipse;whiteSpace=wrap;html=1;aspect=fixed;fontSize=20;" vertex="1" parent="1">
          <mxGeometry x="360" y="360" width="40" height="40" as="geometry" />
        </mxCell>
        <mxCell id="V-pHI00Z-5GAmYZKAMGM-2" style="edgeStyle=none;rounded=0;orthogonalLoop=1;jettySize=auto;html=1;" edge="1" parent="1" source="V-pHI00Z-5GAmYZKAMGM-1" target="NPnL9OzpwwGP1QtvTA34-2">
          <mxGeometry relative="1" as="geometry" />
        </mxCell>
        <mxCell id="V-pHI00Z-5GAmYZKAMGM-1" value="Root" style="text;html=1;strokeColor=none;fillColor=none;align=center;verticalAlign=middle;whiteSpace=wrap;rounded=0;" vertex="1" parent="1">
          <mxGeometry x="230" y="130" width="60" height="30" as="geometry" />
        </mxCell>
      </root>
    </mxGraphModel>
  </diagram>
  <diagram id="P7L9cN43iLepTCaOZU94" name="Tree3">
    <mxGraphModel dx="819" dy="484" grid="1" gridSize="10" guides="1" tooltips="1" connect="1" arrows="1" fold="1" page="1" pageScale="1" pageWidth="827" pageHeight="1169" math="0" shadow="0">
      <root>
        <mxCell id="0" />
        <mxCell id="1" parent="0" />
        <mxCell id="9F-9cFMMjiLlAIceXwZJ-7" style="rounded=0;orthogonalLoop=1;jettySize=auto;html=1;exitX=0;exitY=1;exitDx=0;exitDy=0;endArrow=none;endFill=0;" edge="1" parent="1" source="9F-9cFMMjiLlAIceXwZJ-9" target="9F-9cFMMjiLlAIceXwZJ-14">
          <mxGeometry relative="1" as="geometry" />
        </mxCell>
        <mxCell id="9F-9cFMMjiLlAIceXwZJ-8" style="rounded=0;orthogonalLoop=1;jettySize=auto;html=1;exitX=1;exitY=1;exitDx=0;exitDy=0;endArrow=none;endFill=0;" edge="1" parent="1" source="9F-9cFMMjiLlAIceXwZJ-9" target="9F-9cFMMjiLlAIceXwZJ-17">
          <mxGeometry relative="1" as="geometry" />
        </mxCell>
        <mxCell id="9F-9cFMMjiLlAIceXwZJ-9" value="2" style="ellipse;whiteSpace=wrap;html=1;aspect=fixed;fontSize=20;" vertex="1" parent="1">
          <mxGeometry x="320" y="280" width="40" height="40" as="geometry" />
        </mxCell>
        <mxCell id="9F-9cFMMjiLlAIceXwZJ-14" value="2" style="ellipse;whiteSpace=wrap;html=1;aspect=fixed;fontSize=20;" vertex="1" parent="1">
          <mxGeometry x="280" y="360" width="40" height="40" as="geometry" />
        </mxCell>
        <mxCell id="9F-9cFMMjiLlAIceXwZJ-20" style="edgeStyle=none;rounded=0;orthogonalLoop=1;jettySize=auto;html=1;exitX=0;exitY=1;exitDx=0;exitDy=0;endArrow=none;endFill=0;" edge="1" parent="1" source="9F-9cFMMjiLlAIceXwZJ-17" target="9F-9cFMMjiLlAIceXwZJ-18">
          <mxGeometry relative="1" as="geometry" />
        </mxCell>
        <mxCell id="9F-9cFMMjiLlAIceXwZJ-21" style="edgeStyle=none;rounded=0;orthogonalLoop=1;jettySize=auto;html=1;exitX=1;exitY=1;exitDx=0;exitDy=0;endArrow=none;endFill=0;" edge="1" parent="1" source="9F-9cFMMjiLlAIceXwZJ-17" target="9F-9cFMMjiLlAIceXwZJ-19">
          <mxGeometry relative="1" as="geometry" />
        </mxCell>
        <mxCell id="9F-9cFMMjiLlAIceXwZJ-17" value="8" style="ellipse;whiteSpace=wrap;html=1;aspect=fixed;fontSize=20;" vertex="1" parent="1">
          <mxGeometry x="360" y="360" width="40" height="40" as="geometry" />
        </mxCell>
        <mxCell id="9F-9cFMMjiLlAIceXwZJ-18" value="6" style="ellipse;whiteSpace=wrap;html=1;aspect=fixed;fontSize=20;" vertex="1" parent="1">
          <mxGeometry x="320" y="440" width="40" height="40" as="geometry" />
        </mxCell>
        <mxCell id="9F-9cFMMjiLlAIceXwZJ-19" value="9" style="ellipse;whiteSpace=wrap;html=1;aspect=fixed;fontSize=20;" vertex="1" parent="1">
          <mxGeometry x="400" y="440" width="40" height="40" as="geometry" />
        </mxCell>
        <mxCell id="jT0XjDrdG31g9xF_HD74-2" style="edgeStyle=none;rounded=0;orthogonalLoop=1;jettySize=auto;html=1;" edge="1" parent="1" source="jT0XjDrdG31g9xF_HD74-1" target="9F-9cFMMjiLlAIceXwZJ-9">
          <mxGeometry relative="1" as="geometry" />
        </mxCell>
        <mxCell id="jT0XjDrdG31g9xF_HD74-1" value="Root" style="text;html=1;strokeColor=none;fillColor=none;align=center;verticalAlign=middle;whiteSpace=wrap;rounded=0;" vertex="1" parent="1">
          <mxGeometry x="310" y="210" width="60" height="30" as="geometry" />
        </mxCell>
      </root>
    </mxGraphModel>
  </diagram>
</mxfile>
